<svg id="Layer_1" data-name="Layer 1" xmlns="http://www.w3.org/2000/svg" xmlns:xlink="http://www.w3.org/1999/xlink" viewBox="0 0 607.6 527.4"><defs><style>.cls-1{fill:none;}.cls-2{clip-path:url(#clip-path);}.cls-3{fill:url(#linear-gradient);}.cls-4{clip-path:url(#clip-path-2);}.cls-5{fill:url(#linear-gradient-2);}.cls-6{clip-path:url(#clip-path-3);}.cls-7{fill:url(#linear-gradient-3);}.cls-8{clip-path:url(#clip-path-4);}.cls-9{fill:url(#linear-gradient-4);}.cls-10{clip-path:url(#clip-path-5);}.cls-11{fill:url(#linear-gradient-5);}.cls-12{clip-path:url(#clip-path-6);}.cls-13{fill:url(#linear-gradient-6);}.cls-14{clip-path:url(#clip-path-7);}.cls-15{fill:url(#linear-gradient-7);}.cls-16{clip-path:url(#clip-path-8);}.cls-17{fill:url(#linear-gradient-8);}.cls-18{clip-path:url(#clip-path-9);}.cls-19{fill:url(#linear-gradient-9);}.cls-20{clip-path:url(#clip-path-10);}.cls-21{fill:url(#linear-gradient-10);}.cls-22{clip-path:url(#clip-path-11);}.cls-23{fill:url(#linear-gradient-11);}.cls-24{clip-path:url(#clip-path-12);}.cls-25{fill:url(#linear-gradient-12);}.cls-26{clip-path:url(#clip-path-13);}.cls-27{fill:url(#linear-gradient-13);}.cls-28{clip-path:url(#clip-path-14);}.cls-29{fill:url(#linear-gradient-14);}.cls-30{clip-path:url(#clip-path-15);}.cls-31{fill:url(#linear-gradient-15);}.cls-32{clip-path:url(#clip-path-16);}.cls-33{fill:url(#linear-gradient-16);}.cls-34{clip-path:url(#clip-path-17);}.cls-35{fill:url(#linear-gradient-17);}.cls-36{clip-path:url(#clip-path-18);}.cls-37{fill:url(#linear-gradient-18);}.cls-38{clip-path:url(#clip-path-19);}.cls-39{fill:url(#linear-gradient-19);}.cls-40{clip-path:url(#clip-path-20);}.cls-41{fill:url(#linear-gradient-20);}.cls-42{clip-path:url(#clip-path-21);}.cls-43{fill:url(#linear-gradient-21);}.cls-44{clip-path:url(#clip-path-22);}.cls-45{fill:url(#linear-gradient-22);}.cls-46{clip-path:url(#clip-path-23);}.cls-47{fill:url(#linear-gradient-23);}.cls-48{clip-path:url(#clip-path-24);}.cls-49{fill:url(#linear-gradient-24);}.cls-50{clip-path:url(#clip-path-25);}.cls-51{fill:url(#linear-gradient-25);}.cls-52{clip-path:url(#clip-path-26);}.cls-53{fill:url(#linear-gradient-26);}.cls-54{clip-path:url(#clip-path-27);}.cls-55{fill:url(#linear-gradient-27);}.cls-56{clip-path:url(#clip-path-28);}.cls-57{fill:url(#linear-gradient-28);}.cls-58{clip-path:url(#clip-path-29);}.cls-59{fill:url(#linear-gradient-29);}.cls-60{clip-path:url(#clip-path-30);}.cls-61{fill:url(#linear-gradient-30);}.cls-62{clip-path:url(#clip-path-31);}.cls-63{fill:url(#linear-gradient-31);}.cls-64{clip-path:url(#clip-path-32);}.cls-65{fill:url(#linear-gradient-32);}.cls-66{clip-path:url(#clip-path-33);}.cls-67{fill:url(#linear-gradient-33);}.cls-68{clip-path:url(#clip-path-34);}.cls-69{fill:url(#linear-gradient-34);}.cls-70{clip-path:url(#clip-path-35);}.cls-71{fill:url(#linear-gradient-35);}.cls-72{clip-path:url(#clip-path-36);}.cls-73{fill:url(#linear-gradient-36);}.cls-74{clip-path:url(#clip-path-37);}.cls-75{fill:url(#linear-gradient-37);}.cls-76{clip-path:url(#clip-path-38);}.cls-77{fill:url(#linear-gradient-38);}.cls-78{clip-path:url(#clip-path-39);}.cls-79{fill:url(#linear-gradient-39);}.cls-80{clip-path:url(#clip-path-40);}.cls-81{fill:url(#linear-gradient-40);}.cls-82{clip-path:url(#clip-path-41);}.cls-83{fill:url(#linear-gradient-41);}.cls-84{clip-path:url(#clip-path-42);}.cls-85{fill:url(#linear-gradient-42);}.cls-86{clip-path:url(#clip-path-43);}.cls-87{fill:url(#linear-gradient-43);}.cls-88{clip-path:url(#clip-path-44);}.cls-89{fill:url(#linear-gradient-44);}.cls-90{clip-path:url(#clip-path-45);}.cls-91{fill:url(#linear-gradient-45);}.cls-92{clip-path:url(#clip-path-46);}.cls-93{fill:url(#linear-gradient-46);}.cls-94{clip-path:url(#clip-path-47);}.cls-95{fill:url(#linear-gradient-47);}.cls-96{clip-path:url(#clip-path-48);}.cls-97{fill:url(#linear-gradient-48);}.cls-98{clip-path:url(#clip-path-49);}.cls-99{fill:url(#linear-gradient-49);}.cls-100{clip-path:url(#clip-path-50);}.cls-101{fill:url(#linear-gradient-50);}.cls-102{clip-path:url(#clip-path-51);}.cls-103{fill:url(#linear-gradient-51);}.cls-104{clip-path:url(#clip-path-52);}.cls-105{fill:url(#linear-gradient-52);}.cls-106{clip-path:url(#clip-path-53);}.cls-107{fill:url(#linear-gradient-53);}.cls-108{clip-path:url(#clip-path-54);}.cls-109{fill:url(#linear-gradient-54);}.cls-110{clip-path:url(#clip-path-55);}.cls-111{fill:url(#linear-gradient-55);}.cls-112{clip-path:url(#clip-path-56);}.cls-113{fill:url(#linear-gradient-56);}.cls-114{clip-path:url(#clip-path-57);}.cls-115{fill:url(#linear-gradient-57);}.cls-116{clip-path:url(#clip-path-58);}.cls-117{fill:url(#linear-gradient-58);}.cls-118{clip-path:url(#clip-path-59);}.cls-119{fill:url(#linear-gradient-59);}.cls-120{clip-path:url(#clip-path-60);}.cls-121{fill:url(#linear-gradient-60);}.cls-122{clip-path:url(#clip-path-61);}.cls-123{fill:url(#linear-gradient-61);}.cls-124{clip-path:url(#clip-path-62);}.cls-125{fill:url(#linear-gradient-62);}.cls-126{clip-path:url(#clip-path-63);}.cls-127{fill:url(#linear-gradient-63);}.cls-128{clip-path:url(#clip-path-64);}.cls-129{fill:url(#linear-gradient-64);}.cls-130{clip-path:url(#clip-path-65);}.cls-131{fill:url(#linear-gradient-65);}</style><clipPath id="clip-path" transform="translate(-344.2 -377.5)"><path class="cls-1" d="M371.5,788h7.4a3.82,3.82,0,0,1,3.6,1.8,7.58,7.58,0,0,1,1.1,3.8,5.58,5.58,0,0,1-1.2,3.6,4.19,4.19,0,0,1-3.5,1.6h-7.4Zm-22.6-18.9a2.73,2.73,0,0,0-2.7,2.7v65.5a2.73,2.73,0,0,0,2.7,2.7h19.9a2.73,2.73,0,0,0,2.7-2.7V818h4.2l8.7,19.4a5.45,5.45,0,0,0,1.3,1.7,4,4,0,0,0,3,1h20.8a2.13,2.13,0,0,0,1.6-.7,2.36,2.36,0,0,0,.7-1.6,2.61,2.61,0,0,0-.3-1.1l-12.5-23a24.5,24.5,0,0,0,7.9-8.1,21.65,21.65,0,0,0,3.1-11.8c0-7.6-2.7-13.7-8.2-18.1s-13.1-6.6-22.8-6.6Z"/></clipPath><linearGradient id="linear-gradient" x1="8.81" y1="-248.05" x2="9.81" y2="-248.05" gradientTransform="translate(75450.74 5252.17) rotate(-88.46) scale(304.45)" gradientUnits="userSpaceOnUse"><stop offset="0" stop-color="#b37e10"/><stop offset="0.22" stop-color="#e5c25d"/><stop offset="0.33" stop-color="#f8dd7b"/><stop offset="0.52" stop-color="#fdf1a4"/><stop offset="0.73" stop-color="#f8dd7b"/><stop offset="1" stop-color="#b37e10"/></linearGradient><clipPath id="clip-path-2" transform="translate(-344.2 -377.5)"><path class="cls-1" d="M488.7,769.1a2.73,2.73,0,0,0-2.7,2.7v65.5a2.73,2.73,0,0,0,2.7,2.7h20.7a2.73,2.73,0,0,0,2.7-2.7V771.8a2.73,2.73,0,0,0-2.7-2.7Z"/></clipPath><linearGradient id="linear-gradient-2" x1="8.81" y1="-248.05" x2="9.81" y2="-248.05" gradientTransform="translate(75570.77 5253.61) rotate(-88.46) scale(304.45)" xlink:href="#linear-gradient"/><clipPath id="clip-path-3" transform="translate(-344.2 -377.5)"><path class="cls-1" d="M422.4,769.1a2.73,2.73,0,0,0-2.7,2.7v65.5a2.73,2.73,0,0,0,2.7,2.7h52.8a2.73,2.73,0,0,0,2.7-2.7V823a2.73,2.73,0,0,0-2.7-2.7H444V814h28.2a2.73,2.73,0,0,0,2.7-2.7V798a2.73,2.73,0,0,0-2.7-2.7H444v-6.4h30.4a2.73,2.73,0,0,0,2.7-2.7V771.9a2.73,2.73,0,0,0-2.7-2.7h-52Z"/></clipPath><linearGradient id="linear-gradient-3" x1="8.81" y1="-248.05" x2="9.81" y2="-248.05" gradientTransform="translate(75520.55 5255.04) rotate(-88.46) scale(304.45)" xlink:href="#linear-gradient"/><clipPath id="clip-path-4" transform="translate(-344.2 -377.5)"><path class="cls-1" d="M538.7,771.1a26.43,26.43,0,0,0-11.9,8.9c-2.9,4-4.4,8.9-4.7,15-.1,2.9-.1,6-.1,9.2s0,6.3.1,9c.3,6.3,1.8,11.5,4.7,15.6a25.35,25.35,0,0,0,11.8,9.2,47.71,47.71,0,0,0,17.8,3,48.32,48.32,0,0,0,18.1-3.2,27.84,27.84,0,0,0,12.3-9.4q4.5-6.15,4.5-15.3V799.9a2.73,2.73,0,0,0-2.7-2.7H560.7a2.73,2.73,0,0,0-2.7,2.7v11.3a2.73,2.73,0,0,0,2.7,2.7h4.8v.1a7.7,7.7,0,0,1-1.1,4.2,5.7,5.7,0,0,1-3,2.3,12.51,12.51,0,0,1-4.5.7,8.42,8.42,0,0,1-5.9-2c-1.4-1.4-2.2-3.6-2.3-6.6-.2-5.9-.2-11.6,0-17.2q.15-3.9,2.1-5.7c1.3-1.3,3.2-1.9,5.7-1.9a8.86,8.86,0,0,1,4,.8,8,8,0,0,1,2.2,1.7q.75.9,1.2,1.5a3.6,3.6,0,0,0,1.2.8,4.18,4.18,0,0,0,1.8.3h22.4a2.13,2.13,0,0,0,1.6-.7,2.36,2.36,0,0,0,.7-1.6,18.52,18.52,0,0,0-2.5-8.7,24.15,24.15,0,0,0-7-7.3,35.94,35.94,0,0,0-11-4.9,53.54,53.54,0,0,0-14.4-1.8c-7.1.2-13,1.2-18,3.2"/></clipPath><linearGradient id="linear-gradient-4" x1="8.81" y1="-248.05" x2="9.81" y2="-248.05" gradientTransform="translate(75628.21 5256.94) rotate(-88.46) scale(304.45)" xlink:href="#linear-gradient"/><clipPath id="clip-path-5" transform="translate(-344.2 -377.5)"><path class="cls-1" d="M643,769.1a2.73,2.73,0,0,0-2.7,2.7v27.7l-17.1-28.1A10.06,10.06,0,0,0,622,770a4,4,0,0,0-2.9-.9h-16a2.73,2.73,0,0,0-2.7,2.7v65.5a2.73,2.73,0,0,0,2.7,2.7h18.4a2.73,2.73,0,0,0,2.7-2.7V811.8l17.1,25.9c.2.3.6.7,1.2,1.4a4,4,0,0,0,2.9,1h16a2.73,2.73,0,0,0,2.7-2.7V771.9a2.73,2.73,0,0,0-2.7-2.7H643Z"/></clipPath><linearGradient id="linear-gradient-5" x1="8.81" y1="-248.05" x2="9.81" y2="-248.05" gradientTransform="translate(75703.77 5258.97) rotate(-88.46) scale(304.45)" xlink:href="#linear-gradient"/><clipPath id="clip-path-6" transform="translate(-344.2 -377.5)"><path class="cls-1" d="M678,769.1a2.73,2.73,0,0,0-2.7,2.7v65.5A2.73,2.73,0,0,0,678,840h52.8a2.73,2.73,0,0,0,2.7-2.7V823a2.73,2.73,0,0,0-2.7-2.7H699.6V814h28.2a2.73,2.73,0,0,0,2.7-2.7V798a2.73,2.73,0,0,0-2.7-2.7H699.6v-6.4H730a2.73,2.73,0,0,0,2.7-2.7V771.9a2.73,2.73,0,0,0-2.7-2.7H678Z"/></clipPath><linearGradient id="linear-gradient-6" x1="8.81" y1="-248.05" x2="9.81" y2="-248.05" gradientTransform="translate(75775.99 5260.9) rotate(-88.46) scale(304.45)" xlink:href="#linear-gradient"/><clipPath id="clip-path-7" transform="translate(-344.2 -377.5)"><path class="cls-1" d="M788.4,769.1a4.17,4.17,0,0,0-3.1,1.1,5.42,5.42,0,0,0-1.4,2.2l-9.6,37.7-9.6-37.7a5.42,5.42,0,0,0-1.4-2.2,4.33,4.33,0,0,0-3.1-1.1H741.3a2.4,2.4,0,0,0-2.3,2.3,2,2,0,0,0,.1.7l19.1,64.7a5.42,5.42,0,0,0,1.4,2.2,4.33,4.33,0,0,0,3.1,1.1h23.1a4.17,4.17,0,0,0,3.1-1.1,5.42,5.42,0,0,0,1.4-2.2l19.1-64.7a2,2,0,0,0,.1-.7,2.13,2.13,0,0,0-.7-1.6,2.36,2.36,0,0,0-1.6-.7Z"/></clipPath><linearGradient id="linear-gradient-7" x1="8.81" y1="-248.05" x2="9.81" y2="-248.05" gradientTransform="translate(75844.77 5262.75) rotate(-88.46) scale(304.45)" xlink:href="#linear-gradient"/><clipPath id="clip-path-8" transform="translate(-344.2 -377.5)"><path class="cls-1" d="M819.3,769.1a2.73,2.73,0,0,0-2.7,2.7v65.5a2.73,2.73,0,0,0,2.7,2.7h52.8a2.73,2.73,0,0,0,2.7-2.7V823a2.73,2.73,0,0,0-2.7-2.7H840.9V814h28.2a2.73,2.73,0,0,0,2.7-2.7V798a2.73,2.73,0,0,0-2.7-2.7H840.9v-6.4h30.4a2.73,2.73,0,0,0,2.7-2.7V771.9a2.73,2.73,0,0,0-2.7-2.7h-52Z"/></clipPath><linearGradient id="linear-gradient-8" x1="8.81" y1="-248.05" x2="9.81" y2="-248.05" gradientTransform="translate(75917.18 5264.7) rotate(-88.46) scale(304.45)" xlink:href="#linear-gradient"/><clipPath id="clip-path-9" transform="translate(-344.2 -377.5)"><path class="cls-1" d="M909.6,788H917a3.82,3.82,0,0,1,3.6,1.8,7.58,7.58,0,0,1,1.1,3.8,5.58,5.58,0,0,1-1.2,3.6,4.19,4.19,0,0,1-3.5,1.6h-7.4V788ZM887,769.1a2.73,2.73,0,0,0-2.7,2.7v65.5A2.73,2.73,0,0,0,887,840h19.9a2.73,2.73,0,0,0,2.7-2.7V818h4.2l8.7,19.4a5.45,5.45,0,0,0,1.3,1.7,4,4,0,0,0,3,1h20.8a2.13,2.13,0,0,0,1.6-.7,2.36,2.36,0,0,0,.7-1.6,2.61,2.61,0,0,0-.3-1.1l-12.5-23.1a24.5,24.5,0,0,0,7.9-8.1,21.65,21.65,0,0,0,3.1-11.8c0-7.6-2.7-13.7-8.2-18.1s-13.1-6.6-22.8-6.6H887Z"/></clipPath><linearGradient id="linear-gradient-9" x1="8.81" y1="-248.05" x2="9.81" y2="-248.05" gradientTransform="translate(75988.46 5266.61) rotate(-88.46) scale(304.45)" xlink:href="#linear-gradient"/><clipPath id="clip-path-10" transform="translate(-344.2 -377.5)"><path class="cls-1" d="M417.6,864.9a1,1,0,0,0-.9.4,1.28,1.28,0,0,0-.4,1v35.9a1,1,0,0,0,.4.9,1.22,1.22,0,0,0,.9.4h24.7a1.28,1.28,0,0,0,1-.4,1.22,1.22,0,0,0,.4-.9v-3.6a1.37,1.37,0,0,0-1.4-1.4H423.7V887h16.9a1.28,1.28,0,0,0,1-.4,1.16,1.16,0,0,0,.4-1v-3.4a1.28,1.28,0,0,0-.4-1,1.78,1.78,0,0,0-1-.4H423.7V871h18.1a1.28,1.28,0,0,0,1-.4,1.22,1.22,0,0,0,.4-.9v-3.6a1.37,1.37,0,0,0-1.4-1.4H417.6Z"/></clipPath><linearGradient id="linear-gradient-10" x1="8.81" y1="-248.05" x2="9.81" y2="-248.05" gradientTransform="translate(75503.83 5253.6) rotate(-88.46) scale(304.45)" xlink:href="#linear-gradient"/><clipPath id="clip-path-11" transform="translate(-344.2 -377.5)"><path class="cls-1" d="M475,864.9a1.28,1.28,0,0,0-1,.4,1.78,1.78,0,0,0-.4,1v24.2l-15.9-24.7a2.25,2.25,0,0,0-.5-.5,1.6,1.6,0,0,0-1.1-.4h-4.2a1,1,0,0,0-.9.4,1.28,1.28,0,0,0-.4,1v35.9a1,1,0,0,0,.4.9,1.22,1.22,0,0,0,.9.4h4.6a1.28,1.28,0,0,0,1-.4,1.22,1.22,0,0,0,.4-.9V878.5l15.8,24.2a2.25,2.25,0,0,1,.5.5,1.25,1.25,0,0,0,1.1.4h4.3a1,1,0,0,0,.9-.4,1.28,1.28,0,0,0,.4-1V866.3a1.37,1.37,0,0,0-1.4-1.4Z"/></clipPath><linearGradient id="linear-gradient-11" x1="8.81" y1="-248.05" x2="9.81" y2="-248.05" gradientTransform="translate(75539.61 5254.56) rotate(-88.46) scale(304.45)" xlink:href="#linear-gradient"/><clipPath id="clip-path-12" transform="translate(-344.2 -377.5)"><path class="cls-1" d="M487.9,864.9a1,1,0,0,0-.9.4,1.28,1.28,0,0,0-.4,1v4.1a1,1,0,0,0,.4.9,1.22,1.22,0,0,0,.9.4h10.2v30.5a1,1,0,0,0,.4.9,1.22,1.22,0,0,0,.9.4h5.1a1.28,1.28,0,0,0,1-.4,1.22,1.22,0,0,0,.4-.9V871.7H516a1.28,1.28,0,0,0,1-.4,1.22,1.22,0,0,0,.4-.9v-4.1a1.37,1.37,0,0,0-1.4-1.4Z"/></clipPath><linearGradient id="linear-gradient-12" x1="8.81" y1="-248.05" x2="9.81" y2="-248.05" gradientTransform="translate(75575.36 5255.52) rotate(-88.46) scale(304.45)" xlink:href="#linear-gradient"/><clipPath id="clip-path-13" transform="translate(-344.2 -377.5)"><path class="cls-1" d="M524.3,864.9a1,1,0,0,0-.9.4,1.28,1.28,0,0,0-.4,1v35.9a1,1,0,0,0,.4.9,1.22,1.22,0,0,0,.9.4H549a1.28,1.28,0,0,0,1-.4,1.22,1.22,0,0,0,.4-.9v-3.6a1.37,1.37,0,0,0-1.4-1.4H530.4V887h16.9a1.28,1.28,0,0,0,1-.4,1.16,1.16,0,0,0,.4-1v-3.4a1.28,1.28,0,0,0-.4-1,1.78,1.78,0,0,0-1-.4H530.4V871h18.1a1.28,1.28,0,0,0,1-.4,1.22,1.22,0,0,0,.4-.9v-3.6a1.37,1.37,0,0,0-1.4-1.4H524.3Z"/></clipPath><linearGradient id="linear-gradient-13" x1="8.81" y1="-248.05" x2="9.81" y2="-248.05" gradientTransform="translate(75610.46 5256.46) rotate(-88.46) scale(304.45)" xlink:href="#linear-gradient"/><clipPath id="clip-path-14" transform="translate(-344.2 -377.5)"><path class="cls-1" d="M564.9,871h7.8c2.3,0,4,.5,5,1.6a5.58,5.58,0,0,1,1.6,4.3,5.31,5.31,0,0,1-1.7,4.3,7.29,7.29,0,0,1-5,1.5h-7.8V871Zm-6.3-6.1a1,1,0,0,0-.9.4,1.28,1.28,0,0,0-.4,1v35.9a1,1,0,0,0,.4.9,1.22,1.22,0,0,0,.9.4h5a1.28,1.28,0,0,0,1-.4,1.8,1.8,0,0,0,.4-.9V889h7.7l7.1,13.1a3.51,3.51,0,0,0,.8,1,2,2,0,0,0,1.4.5h5a1.14,1.14,0,0,0,.8-.3,1.23,1.23,0,0,0,.4-.8,1.42,1.42,0,0,0-.2-.6l-8.1-14.1a11.8,11.8,0,0,0,5.4-3.9,11.41,11.41,0,0,0,2-6.8q0-5.85-3.9-9c-2.6-2.1-6.1-3.1-10.5-3.1H558.6Z"/></clipPath><linearGradient id="linear-gradient-14" x1="8.81" y1="-248.05" x2="9.81" y2="-248.05" gradientTransform="translate(75646.46 5257.43) rotate(-88.46) scale(304.45)" xlink:href="#linear-gradient"/><clipPath id="clip-path-15" transform="translate(-344.2 -377.5)"><path class="cls-1" d="M592.2,864.9a1,1,0,0,0-.9.4,1.28,1.28,0,0,0-.4,1v4.1a1,1,0,0,0,.4.9,1.22,1.22,0,0,0,.9.4h10.2v30.5a1,1,0,0,0,.4.9,1.22,1.22,0,0,0,.9.4h5.1a1.28,1.28,0,0,0,1-.4,1.22,1.22,0,0,0,.4-.9V871.7h10.1a1.28,1.28,0,0,0,1-.4,1.22,1.22,0,0,0,.4-.9v-4.1a1.37,1.37,0,0,0-1.4-1.4Z"/></clipPath><linearGradient id="linear-gradient-15" x1="8.81" y1="-248.05" x2="9.81" y2="-248.05" gradientTransform="translate(75679.64 5258.32) rotate(-88.46) scale(304.45)" xlink:href="#linear-gradient"/><clipPath id="clip-path-16" transform="translate(-344.2 -377.5)"><path class="cls-1" d="M638.1,872.3l6.3,17H631.9Zm-3-7.4a1.7,1.7,0,0,0-1.3.4,2.07,2.07,0,0,0-.6,1l-13.3,35.6a1.09,1.09,0,0,0-.1.5.91.91,0,0,0,.4.8,1.14,1.14,0,0,0,.8.3h4.8a1.25,1.25,0,0,0,1.1-.4,3,3,0,0,0,.5-.7l2.6-6.7h16.4l2.6,6.7a1.53,1.53,0,0,0,.5.7,1.6,1.6,0,0,0,1.1.4h4.8a1,1,0,0,0,1.1-1.1,1.09,1.09,0,0,0-.1-.5L643,866.2a2.29,2.29,0,0,0-.7-1,1.7,1.7,0,0,0-1.3-.4h-5.9Z"/></clipPath><linearGradient id="linear-gradient-16" x1="8.81" y1="-248.05" x2="9.81" y2="-248.05" gradientTransform="translate(75712.27 5259.19) rotate(-88.46) scale(304.45)" xlink:href="#linear-gradient"/><clipPath id="clip-path-17" transform="translate(-344.2 -377.5)"><path class="cls-1" d="M662.8,864.9a1,1,0,0,0-.9.4,1.22,1.22,0,0,0-.4.9v36a1,1,0,0,0,.4.9,1.22,1.22,0,0,0,.9.4H668a1.28,1.28,0,0,0,1-.4,1.8,1.8,0,0,0,.4-.9v-36a1,1,0,0,0-.4-.9,1.16,1.16,0,0,0-1-.4Z"/></clipPath><linearGradient id="linear-gradient-17" x1="8.81" y1="-248.05" x2="9.81" y2="-248.05" gradientTransform="translate(75739.11 5259.92) rotate(-88.46) scale(304.45)" xlink:href="#linear-gradient"/><clipPath id="clip-path-18" transform="translate(-344.2 -377.5)"><path class="cls-1" d="M702.4,864.9a1.28,1.28,0,0,0-1,.4,1.78,1.78,0,0,0-.4,1v24.2l-15.9-24.7a2.25,2.25,0,0,0-.5-.5,1.6,1.6,0,0,0-1.1-.4h-4.2a1,1,0,0,0-.9.4,1.28,1.28,0,0,0-.4,1v35.9a1,1,0,0,0,.4.9,1.22,1.22,0,0,0,.9.4h4.6a1.28,1.28,0,0,0,1-.4,1.22,1.22,0,0,0,.4-.9V878.5l15.8,24.2a2.25,2.25,0,0,1,.5.5,1.25,1.25,0,0,0,1.1.4H707a1,1,0,0,0,.9-.4,1.28,1.28,0,0,0,.4-1V866.3a1.37,1.37,0,0,0-1.4-1.4Z"/></clipPath><linearGradient id="linear-gradient-18" x1="8.81" y1="-248.05" x2="9.81" y2="-248.05" gradientTransform="translate(75766.89 5260.66) rotate(-88.46) scale(304.45)" xlink:href="#linear-gradient"/><clipPath id="clip-path-19" transform="translate(-344.2 -377.5)"><path class="cls-1" d="M747.4,864.9a1.59,1.59,0,0,0-1.2.4,7.37,7.37,0,0,0-.5.6L735,885.8l-10.6-19.9a2.2,2.2,0,0,0-.5-.6,1.46,1.46,0,0,0-1.2-.4h-4.4a1.37,1.37,0,0,0-1.4,1.4v35.9a1,1,0,0,0,.4.9,1.28,1.28,0,0,0,1,.4h4.6a1,1,0,0,0,.9-.4,1.22,1.22,0,0,0,.4-.9V878.3l7.7,14.7a5.5,5.5,0,0,0,.7.9,2.14,2.14,0,0,0,1.2.4h2.3a1.59,1.59,0,0,0,1.2-.4,2.18,2.18,0,0,0,.7-.9l7.7-14.7v23.9a1,1,0,0,0,.4.9,1.16,1.16,0,0,0,1,.4h4.6a1.28,1.28,0,0,0,1-.4,1.22,1.22,0,0,0,.4-.9V866.3a1.37,1.37,0,0,0-1.4-1.4Z"/></clipPath><linearGradient id="linear-gradient-19" x1="8.81" y1="-248.05" x2="9.81" y2="-248.05" gradientTransform="translate(75808.71 5261.78) rotate(-88.46) scale(304.45)" xlink:href="#linear-gradient"/><clipPath id="clip-path-20" transform="translate(-344.2 -377.5)"><path class="cls-1" d="M763.1,864.9a1,1,0,0,0-.9.4,1.28,1.28,0,0,0-.4,1v35.9a1,1,0,0,0,.4.9,1.22,1.22,0,0,0,.9.4h24.7a1.28,1.28,0,0,0,1-.4,1.22,1.22,0,0,0,.4-.9v-3.6a1.37,1.37,0,0,0-1.4-1.4H769.2V887h16.9a1.28,1.28,0,0,0,1-.4,1.16,1.16,0,0,0,.4-1v-3.4a1.28,1.28,0,0,0-.4-1,1.78,1.78,0,0,0-1-.4H769.2V871h18.1a1.28,1.28,0,0,0,1-.4,1.22,1.22,0,0,0,.4-.9v-3.6a1.37,1.37,0,0,0-1.4-1.4H763.1Z"/></clipPath><linearGradient id="linear-gradient-20" x1="8.81" y1="-248.05" x2="9.81" y2="-248.05" gradientTransform="translate(75849.05 5262.87) rotate(-88.46) scale(304.45)" xlink:href="#linear-gradient"/><clipPath id="clip-path-21" transform="translate(-344.2 -377.5)"><path class="cls-1" d="M820.4,864.9a1.28,1.28,0,0,0-1,.4,1.78,1.78,0,0,0-.4,1v24.2l-15.9-24.7a2.25,2.25,0,0,0-.5-.5,1.6,1.6,0,0,0-1.1-.4h-4.2a1,1,0,0,0-.9.4,1.28,1.28,0,0,0-.4,1v35.9a1,1,0,0,0,.4.9,1.22,1.22,0,0,0,.9.4h4.6a1.28,1.28,0,0,0,1-.4,1.22,1.22,0,0,0,.4-.9V878.5l15.8,24.2a2.25,2.25,0,0,1,.5.5,1.25,1.25,0,0,0,1.1.4H825a1,1,0,0,0,.9-.4,1.28,1.28,0,0,0,.4-1V866.3a1.37,1.37,0,0,0-1.4-1.4Z"/></clipPath><linearGradient id="linear-gradient-21" x1="8.81" y1="-248.05" x2="9.81" y2="-248.05" gradientTransform="translate(75884.83 5263.83) rotate(-88.46) scale(304.45)" xlink:href="#linear-gradient"/><clipPath id="clip-path-22" transform="translate(-344.2 -377.5)"><path class="cls-1" d="M833.3,864.9a1,1,0,0,0-.9.4,1.28,1.28,0,0,0-.4,1v4.1a1,1,0,0,0,.4.9,1.22,1.22,0,0,0,.9.4h10.2v30.5a1,1,0,0,0,.4.9,1.22,1.22,0,0,0,.9.4h5.1a1.28,1.28,0,0,0,1-.4,1.22,1.22,0,0,0,.4-.9V871.7h10.2a1.28,1.28,0,0,0,1-.4,1.22,1.22,0,0,0,.4-.9v-4.1a1.37,1.37,0,0,0-1.4-1.4Z"/></clipPath><linearGradient id="linear-gradient-22" x1="8.81" y1="-248.05" x2="9.81" y2="-248.05" gradientTransform="translate(75920.58 5264.79) rotate(-88.46) scale(304.45)" xlink:href="#linear-gradient"/><clipPath id="clip-path-23" transform="translate(-344.2 -377.5)"><path class="cls-1" d="M873.7,865.7a12.49,12.49,0,0,0-5,3.9,9.36,9.36,0,0,0-1.7,5.7,10.44,10.44,0,0,0,1.4,5.5,10.82,10.82,0,0,0,4.2,3.6,39.27,39.27,0,0,0,6.9,2.4c2.4.6,4.3,1.2,5.8,1.7a7.92,7.92,0,0,1,3.2,1.8,3.25,3.25,0,0,1,1,2.6,4.23,4.23,0,0,1-2,3.6c-1.3.9-3.3,1.3-5.9,1.3a9.74,9.74,0,0,1-4.1-.7,6.92,6.92,0,0,1-2.6-1.7,8,8,0,0,1-1.3-2.1,4.35,4.35,0,0,0-.6-.7,1.61,1.61,0,0,0-1.1-.3H867a1,1,0,0,0-1.1,1.1,9.76,9.76,0,0,0,1.9,5.2,12.69,12.69,0,0,0,5.2,4,21.73,21.73,0,0,0,8.6,1.5,22.69,22.69,0,0,0,8.2-1.4,12,12,0,0,0,5.5-3.9,10,10,0,0,0,2-6.2,9.83,9.83,0,0,0-1.4-5.4,9.94,9.94,0,0,0-4.4-3.5,39.27,39.27,0,0,0-7.7-2.4,37.12,37.12,0,0,1-5.3-1.7,7.22,7.22,0,0,1-2.9-1.8,4.15,4.15,0,0,1,.9-6,9.47,9.47,0,0,1,4.8-1.1,8.41,8.41,0,0,1,4.7,1.2,4.5,4.5,0,0,1,2.1,2.9c.2.4.4.7.7.8a2.92,2.92,0,0,0,.9.2h5.1a1,1,0,0,0,.9-.4,1.14,1.14,0,0,0,.3-.8,8.12,8.12,0,0,0-1-3.5,12.34,12.34,0,0,0-2.8-3.4,13.4,13.4,0,0,0-4.6-2.5,20.3,20.3,0,0,0-6.3-1,21.38,21.38,0,0,0-7.6,1.5"/></clipPath><linearGradient id="linear-gradient-23" x1="8.81" y1="-248.05" x2="9.81" y2="-248.05" gradientTransform="translate(75955.39 5265.72) rotate(-88.46) scale(304.45)" xlink:href="#linear-gradient"/><clipPath id="clip-path-24" transform="translate(-344.2 -377.5)"><path class="cls-1" d="M581.4,435.4a101.68,101.68,0,0,0,33.8-9.8c.9,14.7,1.8,29.4,2.6,44.1-6-.1-12.2-.1-18.6.1a307.17,307.17,0,0,0-50.1,6c-.3-1.7-.4-2.6-.4-2.6a165.89,165.89,0,0,1,0-39.5,99,99,0,0,0,21.4,2.3,111.31,111.31,0,0,0,11.3-.6m1.1-36.5a269.94,269.94,0,0,1-67.5,2.2,239,239,0,0,0-.3,93.1c14.5,72.6,59.9,117,77.6,134a279.47,279.47,0,0,0,58.8,43c0-8.7.1-19,.1-27.7,0-6.7.1-16.8.1-23.5-7.3-5-66.6-46.4-89.2-98.8-.9-2-1.7-4.1-2.5-6.1a278.37,278.37,0,0,1,92,40.8c-.2-5.6-.3-11.4-.3-17.3s0-11.8.1-17.5a329.13,329.13,0,0,0-37.3-20.5c7.1.3,14.6.7,22.4,1.5,5.2.5,10.3,1.1,15.2,1.8V378a270,270,0,0,1-69.2,20.9"/></clipPath><linearGradient id="linear-gradient-24" x1="8.82" y1="-248.03" x2="9.82" y2="-248.03" gradientTransform="matrix(-1.02, -317.62, 317.62, -1.02, 79022.66, 2823.95)" xlink:href="#linear-gradient"/><clipPath id="clip-path-25" transform="translate(-344.2 -377.5)"><path class="cls-1" d="M659.8,670.7A268.84,268.84,0,0,0,788,528.4c-12.6-1.6-25.2-3.1-37.8-4.7-14,34.3-32.9,56.6-50.5,71.5l-3.3,2.7c.2-31.9.5-63.8.7-95.6,4.9-.6,10-1.1,15.2-1.5a259.46,259.46,0,0,1,82,8c1.3-5.1,2.6-10.4,3.7-16.1,1.1-5.5,2-10.8,2.8-15.9a288.21,288.21,0,0,0-55.2-8.7,281.05,281.05,0,0,0-50.8,1.5l1.5-44.7a190.64,190.64,0,0,0,35.9,8.3,199,199,0,0,0,68.3-2.9c-.5-9.8-1-19.6-1.6-29.4a349.13,349.13,0,0,1-79-5.5,350.14,350.14,0,0,1-60.3-16.7v292Z"/></clipPath><linearGradient id="linear-gradient-25" x1="8.82" y1="-248.02" x2="9.82" y2="-248.02" gradientTransform="matrix(-1.02, -317.62, 317.62, -1.02, 79171.69, 2823.47)" xlink:href="#linear-gradient"/><clipPath id="clip-path-26" transform="translate(-344.2 -377.5)"><path class="cls-1" d="M712.9,673.2c-14,5.7-11.9,27.4-11.9,27.4s15.6-1.9,26.5-12.6,12.8-28.1,11.8-29a132.09,132.09,0,0,1-26.4,14.2"/></clipPath><linearGradient id="linear-gradient-26" x1="7.79" y1="-254.43" x2="8.79" y2="-254.43" gradientTransform="translate(55.95 10122.61) scale(38.6)" xlink:href="#linear-gradient"/><clipPath id="clip-path-27" transform="translate(-344.2 -377.5)"><path class="cls-1" d="M713.1,673.6a125.25,125.25,0,0,0,26-14c.3,2.9-2.1,18.3-11.9,28-9.6,9.5-23.2,12.1-25.8,12.5-.2-3.1-.7-21.5,11.7-26.5m26-15c-.1.1-10,7.6-26.3,14.2-14.1,5.7-12.2,27.6-12.2,27.8v.4l.4-.1c.2,0,15.9-2,26.7-12.8,9.2-9.1,12.2-23,12.1-28,0-1.1-.2-1.5-.4-1.6l-.3-.3Z"/></clipPath><linearGradient id="linear-gradient-27" x1="10.95" y1="-251.16" x2="11.95" y2="-251.16" gradientTransform="translate(10128.92 10987) rotate(-45) scale(57.54)" xlink:href="#linear-gradient"/><clipPath id="clip-path-28" transform="translate(-344.2 -377.5)"><path class="cls-1" d="M673,690.4c-13.2,7.3-8.5,28.6-8.5,28.6s.8-.2,2.1-.6c2.7,3.7,13.1,16.8,25.6,13.2,17.1-4.9,29.6-5,29.6-5,.2-1.3-12-13.8-27.2-15.5a43.46,43.46,0,0,0-15.1,1.1,42.77,42.77,0,0,0,9.8-8.9c9.5-12,9.2-29.4,8.2-30.2A133.29,133.29,0,0,1,673,690.4"/></clipPath><linearGradient id="linear-gradient-28" x1="7.86" y1="-252.25" x2="8.86" y2="-252.25" gradientTransform="translate(-136.63 14963.34) scale(58.03)" xlink:href="#linear-gradient"/><clipPath id="clip-path-29" transform="translate(-344.2 -377.5)"><path class="cls-1" d="M702,702.2s11.7,18.3,26.2,14.2c17.1-4.9,29.6-5,29.6-5,.2-1.3-12-13.8-27.2-15.5a33.66,33.66,0,0,0-4.4-.3c-13.2-.1-24.2,6.6-24.2,6.6"/></clipPath><linearGradient id="linear-gradient-29" x1="7.86" y1="-252.41" x2="8.86" y2="-252.41" gradientTransform="translate(-80.75 14420.45) scale(55.82)" xlink:href="#linear-gradient"/><clipPath id="clip-path-30" transform="translate(-344.2 -377.5)"><path class="cls-1" d="M745.1,667.6c-7.7,5.8-4.5,17.8-3.2,21.4-.8.4-1.3.7-1.3.7s9.7,15.7,21.8,12.1c14.3-4.3,24.6-4.4,24.6-4.4.2-1.1-9.9-11.8-22.5-13.3a37.27,37.27,0,0,0-14.5,1.5,32.26,32.26,0,0,0,9.3-10c5.7-10,3.4-23.2,2.4-23.7a101,101,0,0,1-16.6,15.7"/></clipPath><linearGradient id="linear-gradient-30" x1="7.83" y1="-253.26" x2="8.83" y2="-253.26" gradientTransform="translate(29.34 12159.07) scale(46.82)" xlink:href="#linear-gradient"/><clipPath id="clip-path-31" transform="translate(-344.2 -377.5)"><path class="cls-1" d="M768.8,653.8c-4.9,6.9-.5,15.7,2.3,20.1a2.48,2.48,0,0,0-.6.4s9.1,14.7,20.3,11.3a91.64,91.64,0,0,1,23-4.1c.1-1.1-9.3-11-21-12.4a32.8,32.8,0,0,0-14,1.6,36.36,36.36,0,0,0,6.4-13.4c2.4-11.6-4-23.7-5.1-23.9a108.81,108.81,0,0,1-11.3,20.4"/></clipPath><linearGradient id="linear-gradient-31" x1="7.83" y1="-253.23" x2="8.83" y2="-253.23" gradientTransform="translate(53.15 12224.64) scale(47.15)" xlink:href="#linear-gradient"/><clipPath id="clip-path-32" transform="translate(-344.2 -377.5)"><path class="cls-1" d="M787.2,643.5c-3.4,6.9,2.4,14.3,5.2,17.2-.4.3-.7.5-.7.5s9,11.6,18.1,7.7a77.86,77.86,0,0,1,19-5.6c0-.9-8.8-8.5-18.9-8.6a30.77,30.77,0,0,0-13.5,3.5,30.39,30.39,0,0,0,4.8-14c.5-10-6.5-19.3-7.4-19.3.1,0-1.3,8-6.6,18.6"/></clipPath><linearGradient id="linear-gradient-32" x1="7.81" y1="-253.77" x2="8.81" y2="-253.77" gradientTransform="translate(108.45 11105.29) scale(42.69)" xlink:href="#linear-gradient"/><clipPath id="clip-path-33" transform="translate(-344.2 -377.5)"><path class="cls-1" d="M807.8,616.2a69.25,69.25,0,0,1-4.5,16.1c-2.3,5.8,2.4,11.3,5.1,13.9l-.3.3s9.2,8.3,16.3,3.8a66.72,66.72,0,0,1,15-7.4c-.1-.8-8.6-5.8-17-4.4a24.46,24.46,0,0,0-9.4,3.9,26.49,26.49,0,0,0,2.3-10.3c-.3-8.5-6.7-15.9-7.5-15.9h0"/></clipPath><linearGradient id="linear-gradient-33" x1="7.78" y1="-254.7" x2="8.78" y2="-254.7" gradientTransform="translate(172.57 9614.05) scale(36.73)" xlink:href="#linear-gradient"/><clipPath id="clip-path-34" transform="translate(-344.2 -377.5)"><path class="cls-1" d="M817.4,604.7a53.68,53.68,0,0,1-2.5,13.4c-1.6,5.2,3.6,9.4,5.9,11a.31.31,0,0,0-.1.2s7.7,7.7,13.8,3.7a50.66,50.66,0,0,1,12.8-6.3c-.1-.7-7.2-5.3-14.4-4.3a21.05,21.05,0,0,0-9.4,4.3,19.85,19.85,0,0,0,1.6-9.9c-.9-6.7-6.9-12.1-7.7-12.1h0"/></clipPath><linearGradient id="linear-gradient-34" x1="7.76" y1="-255.55" x2="8.76" y2="-255.55" gradientTransform="translate(217.19 8587.96) scale(32.65)" xlink:href="#linear-gradient"/><clipPath id="clip-path-35" transform="translate(-344.2 -377.5)"><path class="cls-1" d="M673.3,690.7a135.89,135.89,0,0,0,24.1-17.1c.7,2.9.2,18.4-8.4,29.3a43.38,43.38,0,0,1-9.7,8.8l-2,1.3,2.3-.6a43.16,43.16,0,0,1,15-1.1c13.8,1.6,25.2,12.3,26.7,14.7a133.15,133.15,0,0,0-29.1,5c-12.1,3.5-22.3-9.1-25.1-13.1l-.2-.3-.3.1c-.7.2-1.2.4-1.6.5-.7-2.8-3.5-20.9,8.3-27.5m23.9-18.1c-.1.1-9,8.8-24.3,17.3-13.3,7.4-8.7,28.9-8.7,29.1l.1.4.4-.1,1.8-.5c2.8,3.8,11,13.8,21.4,13.8a18.6,18.6,0,0,0,4.5-.6c16.9-4.8,29.3-5,29.5-5h.4l.1-.4c0-.2,0-.6-.7-1.5-3-3.9-14-13-26.8-14.5a42.39,42.39,0,0,0-13.2.6,40.65,40.65,0,0,0,8.2-7.8c8-10.1,9.3-24.3,8.6-29.3a3,3,0,0,0-.5-1.6l-.3-.2Z"/></clipPath><linearGradient id="linear-gradient-35" x1="10.99" y1="-251.32" x2="11.99" y2="-251.32" gradientTransform="translate(9981.07 10885.81) rotate(-45) scale(56.82)" xlink:href="#linear-gradient"/><clipPath id="clip-path-36" transform="translate(-344.2 -377.5)"><path class="cls-1" d="M702.6,702.3c2.3-1.3,14.5-7.7,28-6.1,13.8,1.6,25.2,12.3,26.7,14.7a133.15,133.15,0,0,0-29.1,5,15.23,15.23,0,0,1-4.2.6c-11,0-19.8-11.9-21.4-14.2m-.8-.5-.4.2.2.4a42.66,42.66,0,0,0,7.8,8.7c4.8,4.1,9.8,6.2,14.6,6.2a16.11,16.11,0,0,0,4.4-.6c16.9-4.8,29.3-5,29.5-5h.4l.1-.4c0-.2,0-.6-.7-1.5-3-3.9-14-13-26.8-14.5a33.66,33.66,0,0,0-4.4-.3,53.6,53.6,0,0,0-24.7,6.8"/></clipPath><linearGradient id="linear-gradient-36" x1="12.83" y1="-253.17" x2="13.83" y2="-253.17" gradientTransform="translate(6345.87 6952.08) rotate(-45) scale(35.15)" xlink:href="#linear-gradient"/><clipPath id="clip-path-37" transform="translate(-344.2 -377.5)"><path class="cls-1" d="M741.2,689.8c.2-.1.5-.3.9-.5l.3-.2-.1-.3c-1.2-3.5-4.4-15.3,3.1-20.9a92.28,92.28,0,0,0,16.2-15.2c.9,2.4,2.4,13.7-2.8,22.7a31.76,31.76,0,0,1-9.2,9.9l-2.1,1.5,2.4-.7a35.89,35.89,0,0,1,14.3-1.5c11.4,1.3,20.7,10.3,22,12.5a107.51,107.51,0,0,0-24.1,4.4,10.6,10.6,0,0,1-3.5.5c-8.9-.1-16.1-10.1-17.4-12.2m20.1-38.1a94.07,94.07,0,0,1-16.4,15.5c-7.7,5.8-4.8,17.6-3.5,21.5a10.39,10.39,0,0,1-1,.6l-.4.2.2.4c.1.1,8.1,12.9,18.5,12.9a11.93,11.93,0,0,0,3.7-.6,100.37,100.37,0,0,1,24.5-4.4h.4v-.4c0-.2,0-.6-.7-1.5-2.7-3.5-11.7-11.1-22.2-12.3a34.32,34.32,0,0,0-12.6,1,33.42,33.42,0,0,0,7.7-8.8c4.8-8.4,4.1-19,3-22.9-.3-1-.5-1.2-.7-1.3l-.3-.2Z"/></clipPath><linearGradient id="linear-gradient-37" x1="11.93" y1="-252.34" x2="12.93" y2="-252.34" gradientTransform="translate(7744.09 8390.41) rotate(-45) scale(43.2)" xlink:href="#linear-gradient"/><clipPath id="clip-path-38" transform="translate(-344.2 -377.5)"><path class="cls-1" d="M771.1,674.4a.35.35,0,0,0,.2-.1l.4-.2-.2-.4c-2.9-4.5-7-13-2.3-19.6a104.19,104.19,0,0,0,11.1-20c1.6,2,6.6,12.8,4.5,23.1a33.34,33.34,0,0,1-6.3,13.2l-.8,1.1,1.3-.4a33.66,33.66,0,0,1,13.8-1.6c10.5,1.2,19.2,9.5,20.5,11.6a97.74,97.74,0,0,0-22.5,4.1,12.48,12.48,0,0,1-3.2.5c-8.6-.1-15.2-9.4-16.5-11.3m8.5-41.2c0,.1-3.3,9.2-11.2,20.4-4.8,6.9-.9,15.4,2.1,20.2a1.24,1.24,0,0,0-.3.2l-.4.2.2.4c.1.1,7.5,12,17.3,12a14.77,14.77,0,0,0,3.5-.5,95,95,0,0,1,22.9-4.1h.4v-.4c0-.2,0-.6-.7-1.4-2.5-3.3-10.9-10.4-20.7-11.5a32.81,32.81,0,0,0-13,1.2,34.1,34.1,0,0,0,5.7-12.5c2-9.7-2-19.9-4.3-23.3-.6-.9-.9-1-1.1-1.1l-.4-.1Z"/></clipPath><linearGradient id="linear-gradient-38" x1="12.55" y1="-252.96" x2="13.55" y2="-252.96" gradientTransform="translate(6771.57 7305.89) rotate(-45) scale(37.32)" xlink:href="#linear-gradient"/><clipPath id="clip-path-39" transform="translate(-344.2 -377.5)"><path class="cls-1" d="M792.4,661.3c.1-.1.2-.1.3-.2l.4-.3-.3-.4c-2.7-2.8-8.5-10-5.1-16.8a77.38,77.38,0,0,0,6.6-18.1c1.7,1.6,7.1,9.9,6.7,18.6a29.13,29.13,0,0,1-4.7,13.8l-.8,1.3,1.4-.7a29.19,29.19,0,0,1,13.1-3.4h.2c8.8.1,16.8,6.1,18.2,7.8a83.41,83.41,0,0,0-18.5,5.5,9.71,9.71,0,0,1-3.7.7c-6.7.2-12.5-6.3-13.8-7.8m1.1-36.5a76,76,0,0,1-6.7,18.5c-3.4,6.9,2.1,14.2,5,17.4a1.24,1.24,0,0,0-.3.2l-.3.3.3.3c.3.4,6.8,8.7,14.5,8.7a12.41,12.41,0,0,0,4.1-.8,77.37,77.37,0,0,1,18.9-5.5h.4v-.4c0-.2-.1-.5-.7-1.2-2.4-2.5-10.2-7.8-18.6-7.8a28.35,28.35,0,0,0-12.4,2.9,29.34,29.34,0,0,0,4.1-13c.4-8.4-4.3-16.4-6.7-19-.6-.7-.9-.8-1.1-.8h-.4Z"/></clipPath><linearGradient id="linear-gradient-39" x1="13.98" y1="-254.43" x2="14.98" y2="-254.43" gradientTransform="translate(5272.23 5670.25) rotate(-45) scale(28.38)" xlink:href="#linear-gradient"/><clipPath id="clip-path-40" transform="translate(-344.2 -377.5)"><path class="cls-1" d="M808.7,646.5l.3-.3-.3-.3c-2.8-2.7-7.2-8-5-13.4a72.77,72.77,0,0,0,4.5-15.6c1.6,1.4,6.5,7.9,6.7,15.2a23.36,23.36,0,0,1-2.2,10.1l-.6,1.3,1.2-.8a23.42,23.42,0,0,1,9.2-3.8c7.3-1.2,14.6,2.5,16.2,3.8a70,70,0,0,0-14.6,7.3,8.36,8.36,0,0,1-4.5,1.3c-4.9-.1-9.7-3.8-10.9-4.8m-1.3-30.7v.4a66.59,66.59,0,0,1-4.5,16c-2.3,5.7,1.9,11.1,4.9,14h0l-.3.3.3.3c.3.3,5.9,5.3,11.8,5.3a9.26,9.26,0,0,0,5-1.4,74.32,74.32,0,0,1,14.9-7.4l.3-.1-.1-.4c0-.2-.1-.4-.8-.9-2.4-1.8-9.6-5-16.7-3.8a25.51,25.51,0,0,0-8.4,3.2,26.32,26.32,0,0,0,1.8-9.2c-.2-7.1-4.7-13.7-6.9-15.7-.6-.5-.8-.6-1-.6Z"/></clipPath><linearGradient id="linear-gradient-40" x1="14.62" y1="-255.03" x2="15.62" y2="-255.03" gradientTransform="translate(4820.26 5155.99) rotate(-45) scale(25.63)" xlink:href="#linear-gradient"/><clipPath id="clip-path-41" transform="translate(-344.2 -377.5)"><path class="cls-1" d="M821.3,629.3l.2-.2-.4-.3c-2.2-1.5-7.3-5.6-5.8-10.5a58.71,58.71,0,0,0,2.5-12.9c1.5,1.1,6.1,5.6,6.9,11.5a20,20,0,0,1-1.5,9.7l-.6,1.5,1.3-1a20.2,20.2,0,0,1,9.2-4.2c6-.9,12.2,2.5,13.6,3.6a60.39,60.39,0,0,0-12.3,6.2,6.17,6.17,0,0,1-3.6,1c-4.3,0-8.4-3.4-9.5-4.4m-4-25-.4.1v.4a51.23,51.23,0,0,1-2.5,13.3c-1.6,5.2,3.2,9.4,5.7,11.2l-.1.1.3.3c.3.3,5.1,5,10.2,5a7,7,0,0,0,4.1-1.2,51.79,51.79,0,0,1,12.7-6.3l.3-.1v-.4c0-.2-.1-.4-.8-1-1.8-1.3-7.8-4.6-14-3.7a20.89,20.89,0,0,0-8.4,3.5,20.3,20.3,0,0,0,1.1-8.8c-.8-6-5.3-10.7-7-12a2.71,2.71,0,0,0-1.2-.4h0"/></clipPath><linearGradient id="linear-gradient-41" x1="15.83" y1="-256.29" x2="16.83" y2="-256.29" gradientTransform="translate(4162.61 4424.03) rotate(-45) scale(21.68)" xlink:href="#linear-gradient"/><clipPath id="clip-path-42" transform="translate(-344.2 -377.5)"><path class="cls-1" d="M823.6,625.4a121.16,121.16,0,0,1-9,12.3A131.87,131.87,0,0,1,793,659c-4,3.1-8.1,6-12.4,8.7-12.8,7.9-27.2,13.7-41.5,18.6-9.6,3.3-19.4,6.2-29.2,9.3-1.2.4-2.4.8-3.7,1.2a220.16,220.16,0,0,0-25.2,10c-4.7,2.3-9.3,4.7-13.7,7.4a128.31,128.31,0,0,0-12.9,8.9l-3,2.5A85,85,0,0,0,633.5,746c.2.4,1.7,1,2,.7,5.8-6.4,11.4-12.9,18.4-18l3.1-2.1c4.2-2.7,8.5-5.3,13-7.6s9-4.6,13.7-6.5,9.3-3.9,14-5.7l3.5-1.4,3.6-1.3c2.4-.9,4.8-1.8,7.2-2.6,9.6-3.5,19.3-6.9,28.9-10.5,7.2-2.7,14.5-5.6,21.4-8.9l1.8-.8a141.48,141.48,0,0,0,15.3-8.4l3.3-2.1a143.11,143.11,0,0,0,12.4-9.3,138.94,138.94,0,0,0,29.8-35.4,136.49,136.49,0,0,0,7.1-13.7l-.6-.3c-2.5,4.6-5,9-7.8,13.3"/></clipPath><linearGradient id="linear-gradient-42" x1="7.96" y1="-249.25" x2="8.96" y2="-249.25" gradientTransform="translate(-1290.79 49774.54) scale(198.49)" xlink:href="#linear-gradient"/><clipPath id="clip-path-43" transform="translate(-344.2 -377.5)"><path class="cls-1" d="M633.9,746a81.22,81.22,0,0,1,17.7-20l3-2.5a117.45,117.45,0,0,1,12.8-8.8c3.9-2.4,8.2-4.7,13.7-7.4a200.3,200.3,0,0,1,25.2-10l.5-.2c1.1-.4,2.1-.7,3.2-1,3.4-1.1,6.8-2.1,10.1-3.2,6.3-2,12.8-4,19.1-6.2,11-3.8,27.3-9.8,41.6-18.7a140.75,140.75,0,0,0,12.5-8.7A129.46,129.46,0,0,0,815,637.9a141.63,141.63,0,0,0,9-12.4c1.8-2.8,3.6-5.7,5.2-8.7-1.5,3-3.1,6-4.8,8.9A138.51,138.51,0,0,1,794.7,661a154.1,154.1,0,0,1-12.4,9.3l-3.3,2.1c-5.4,3.3-10.4,6-15.3,8.4-.1,0-1.8.8-1.8.8-6.2,2.9-13.2,5.9-21.4,8.9-5.5,2.1-11.2,4.1-16.6,6-4.1,1.5-8.2,2.9-12.3,4.4l-6.6,2.4-7.7,2.9c-4.2,1.6-9.2,3.6-14,5.7-4.4,1.8-8.7,4-13.7,6.6a137,137,0,0,0-13,7.7l-3.1,2.1c-6.4,4.7-11.7,10.6-16.8,16.3l-1.5,1.7a1.94,1.94,0,0,1-1.3-.3m197-134c-2.3,4.5-4.9,9-7.6,13.2a122.84,122.84,0,0,1-9,12.3,132.11,132.11,0,0,1-21.6,21.3,144.72,144.72,0,0,1-12.4,8.6c-14.2,8.8-30.5,14.8-41.4,18.6-6.3,2.2-12.8,4.2-19.1,6.1-3.4,1.1-6.8,2.1-10.2,3.2-1.1.3-2.1.7-3.2,1l-.5.2a202.25,202.25,0,0,0-25.3,10c-5.5,2.7-9.9,5-13.8,7.4a119.73,119.73,0,0,0-12.9,8.9l-3,2.5a84.52,84.52,0,0,0-18,20.5l-.1.2.2.2a4.21,4.21,0,0,0,2,1h.1a.85.85,0,0,0,.6-.2l1.6-1.8c5.4-5.9,10.4-11.5,16.7-16.1l3.1-2.1c4.7-3,8.9-5.5,12.9-7.6,5-2.6,9.2-4.7,13.6-6.5,4.8-2.1,9.8-4.1,14-5.7l3.5-1.4,4.1-1.5,6.6-2.4c4.1-1.5,8.2-3,12.3-4.4,5.5-2,11.1-4,16.6-6,8.2-3,15.2-6,21.5-8.9a7.37,7.37,0,0,1,1.8-.8h0a149.39,149.39,0,0,0,15.4-8.4l3.3-2.1a134.61,134.61,0,0,0,42.4-44.8,136.49,136.49,0,0,0,7.1-13.7l.2-.4-1.3-.6Z"/></clipPath><linearGradient id="linear-gradient-43" x1="8.72" y1="-248.78" x2="9.72" y2="-248.78" gradientTransform="translate(40338.21 43326.48) rotate(-45) scale(235.84)" xlink:href="#linear-gradient"/><clipPath id="clip-path-44" transform="translate(-344.2 -377.5)"><path class="cls-1" d="M834.3,603.8c-6.1,4.2-6.5,15.8-6.5,15.8a27.57,27.57,0,0,0,11.5-8.9c4.5-6.3,4.5-14.5,4-14.8-.1,0-1.8,3-9,7.9"/></clipPath><linearGradient id="linear-gradient-44" x1="7.49" y1="-263.85" x2="8.49" y2="-263.85" gradientTransform="translate(366.41 4358.23) scale(15.65)" xlink:href="#linear-gradient"/><clipPath id="clip-path-45" transform="translate(-344.2 -377.5)"><path class="cls-1" d="M834.5,604.2A42,42,0,0,0,843,597a25,25,0,0,1-4.1,13.6,26.43,26.43,0,0,1-10.6,8.4c.1-2.5,1.2-11.4,6.2-14.8m8.3-8.5s-1.8,2.9-8.8,7.8c-6.2,4.3-6.7,15.7-6.7,16.1v.6l.6-.2a26.81,26.81,0,0,0,11.6-9c4.2-5.9,4.5-13.3,4.2-14.8a1.63,1.63,0,0,0-.3-.6l-.4-.2Z"/></clipPath><linearGradient id="linear-gradient-45" x1="13.88" y1="-254.29" x2="14.88" y2="-254.29" gradientTransform="translate(5385.58 5711.64) rotate(-45) scale(28.85)" xlink:href="#linear-gradient"/><clipPath id="clip-path-46" transform="translate(-344.2 -377.5)"><path class="cls-1" d="M583.8,686.8c10.9,10.8,26.5,12.6,26.5,12.6s2.1-21.7-11.9-27.4c-16.5-6.7-26.4-14.3-26.4-14.3-1,1.1.9,18.4,11.8,29.1"/></clipPath><linearGradient id="linear-gradient-46" x1="8.21" y1="-254.43" x2="9.21" y2="-254.43" gradientTransform="matrix(-38.6, 0, 0, 38.6, 582.96, 10121.49)" xlink:href="#linear-gradient"/><clipPath id="clip-path-47" transform="translate(-344.2 -377.5)"><path class="cls-1" d="M584.1,686.5c-9.8-9.7-12.2-25.1-11.9-28a125.25,125.25,0,0,0,26,14c12.4,5.1,11.9,23.4,11.7,26.5-2.6-.4-16.2-2.9-25.8-12.5m-12.4-29c-.2.2-.3.5-.4,1.6,0,5,3,18.9,12.1,28,10.8,10.7,26.6,12.7,26.7,12.8l.4.1v-.4c0-.2,1.9-22.1-12.2-27.8A131.73,131.73,0,0,1,572,657.6l-.3-.2Z"/></clipPath><linearGradient id="linear-gradient-47" x1="11.15" y1="-250.96" x2="12.15" y2="-250.96" gradientTransform="matrix(-40.69, -40.69, -40.69, 40.69, -9489.94, 10985.89)" xlink:href="#linear-gradient"/><clipPath id="clip-path-48" transform="translate(-344.2 -377.5)"><path class="cls-1" d="M622,702.1a42.77,42.77,0,0,0,9.8,8.9,43.66,43.66,0,0,0-15.1-1.1c-15.2,1.8-27.4,14.2-27.2,15.5,0,0,12.4.1,29.6,5,12.5,3.6,22.9-9.5,25.6-13.2,1.3.4,2.1.6,2.1.6s4.7-21.3-8.5-28.6c-15.6-8.7-24.4-17.4-24.4-17.4-1.1.9-1.4,18.3,8.1,30.3"/></clipPath><linearGradient id="linear-gradient-48" x1="8.14" y1="-252.25" x2="9.14" y2="-252.25" gradientTransform="matrix(-58.03, 0, 0, 58.03, 775.55, 14962.37)" xlink:href="#linear-gradient"/><clipPath id="clip-path-49" transform="translate(-344.2 -377.5)"><path class="cls-1" d="M580.7,694.7c-15.2,1.8-27.4,14.2-27.2,15.5,0,0,12.5.1,29.6,5,14.5,4.1,26.2-14.2,26.2-14.2s-10.9-6.6-24.2-6.6c-1.5.1-3,.1-4.4.3"/></clipPath><linearGradient id="linear-gradient-49" x1="8.14" y1="-252.41" x2="9.14" y2="-252.41" gradientTransform="matrix(-55.82, 0, 0, 55.82, 719.66, 14419.38)" xlink:href="#linear-gradient"/><clipPath id="clip-path-50" transform="translate(-344.2 -377.5)"><path class="cls-1" d="M552.2,674.6a32.26,32.26,0,0,0,9.3,10,33.84,33.84,0,0,0-14.5-1.5c-12.6,1.5-22.7,12.1-22.5,13.3a103.76,103.76,0,0,1,24.6,4.4c12.1,3.6,21.8-12.1,21.8-12.1s-.5-.3-1.3-.7c1.2-3.6,4.5-15.6-3.2-21.4A90.49,90.49,0,0,1,549.9,651c-1.1.4-3.5,13.5,2.3,23.6"/></clipPath><linearGradient id="linear-gradient-50" x1="8.17" y1="-253.26" x2="9.17" y2="-253.26" gradientTransform="matrix(-46.82, 0, 0, 46.82, 609.58, 12158.03)" xlink:href="#linear-gradient"/><clipPath id="clip-path-51" transform="translate(-344.2 -377.5)"><path class="cls-1" d="M526.2,656.1a33.48,33.48,0,0,0,6.4,13.4,34.44,34.44,0,0,0-14-1.6c-11.8,1.4-21.2,11.3-21,12.4a91.64,91.64,0,0,1,23,4.1c11.3,3.4,20.3-11.3,20.3-11.3a4.57,4.57,0,0,1-.6-.4c2.8-4.4,7.2-13.2,2.3-20.1a94.33,94.33,0,0,1-11.2-20.5c-1.2.3-7.6,12.4-5.2,24"/></clipPath><linearGradient id="linear-gradient-51" x1="8.17" y1="-253.23" x2="9.17" y2="-253.23" gradientTransform="matrix(-47.16, 0, 0, 47.16, 585.76, 12223.56)" xlink:href="#linear-gradient"/><clipPath id="clip-path-52" transform="translate(-344.2 -377.5)"><path class="cls-1" d="M510,643.1a30,30,0,0,0,4.8,14,30,30,0,0,0-13.5-3.5c-10.1.1-18.9,7.6-18.9,8.6a79.18,79.18,0,0,1,19,5.6c9.2,3.9,18.1-7.7,18.1-7.7s-.3-.2-.7-.5c2.8-3,8.6-10.3,5.2-17.2a79,79,0,0,1-6.7-18.6c-.9,0-7.8,9.3-7.3,19.3"/></clipPath><linearGradient id="linear-gradient-52" x1="8.19" y1="-253.77" x2="9.19" y2="-253.77" gradientTransform="matrix(-42.69, 0, 0, 42.69, 530.47, 11104.23)" xlink:href="#linear-gradient"/><clipPath id="clip-path-53" transform="translate(-344.2 -377.5)"><path class="cls-1" d="M496.1,631a23,23,0,0,0,2.3,10.3,24.46,24.46,0,0,0-9.4-3.9c-8.4-1.4-16.9,3.6-17,4.4a66.72,66.72,0,0,1,15,7.4c7.1,4.6,16.3-3.8,16.3-3.8l-.3-.3c2.7-2.5,7.4-8.1,5.1-13.9a63.58,63.58,0,0,1-4.5-16.1h0c-.9,0-7.3,7.4-7.5,15.9"/></clipPath><linearGradient id="linear-gradient-53" x1="8.22" y1="-254.71" x2="9.22" y2="-254.71" gradientTransform="matrix(-36.73, 0, 0, 36.73, 466.35, 9613.04)" xlink:href="#linear-gradient"/><clipPath id="clip-path-54" transform="translate(-344.2 -377.5)"><path class="cls-1" d="M486.2,615.8a19.85,19.85,0,0,0,1.6,9.9,20.55,20.55,0,0,0-9.4-4.3c-7.1-1.1-14.3,3.6-14.4,4.3a57.59,57.59,0,0,1,12.8,6.3c6,3.9,13.8-3.7,13.8-3.7a.35.35,0,0,1-.1-.2c2.3-1.6,7.5-5.9,5.9-11a53.68,53.68,0,0,1-2.5-13.4h0c-.8,0-6.8,5.3-7.7,12.1"/></clipPath><linearGradient id="linear-gradient-54" x1="8.24" y1="-255.55" x2="9.24" y2="-255.55" gradientTransform="matrix(-32.65, 0, 0, 32.65, 421.72, 8586.91)" xlink:href="#linear-gradient"/><clipPath id="clip-path-55" transform="translate(-344.2 -377.5)"><path class="cls-1" d="M632.1,710.7a41.31,41.31,0,0,1-9.7-8.8c-8.5-10.8-9.1-26.4-8.4-29.3a135.89,135.89,0,0,0,24.1,17.1c11.7,6.5,8.9,24.7,8.3,27.7-.3-.1-.9-.3-1.6-.5l-.3-.1-.2.3c-2.8,3.9-13,16.5-25.1,13.1a126.77,126.77,0,0,0-29.1-5c1.5-2.4,12.9-13.1,26.7-14.7a43.16,43.16,0,0,1,15,1.1l2.3.6Zm-18.5-39.1c-.2.1-.4.4-.5,1.6-.6,4.9.6,19.1,8.6,29.3a43.75,43.75,0,0,0,8.2,7.8,42.39,42.39,0,0,0-13.2-.6c-12.8,1.5-23.8,10.6-26.8,14.5-.7.9-.8,1.3-.7,1.5l.1.4h.4c.1,0,12.6.2,29.5,5a17.4,17.4,0,0,0,4.5.6c10.4,0,18.6-10,21.4-13.8a10,10,0,0,0,1.8.5l.4.1.1-.4c0-.2,4.6-21.7-8.7-29.1a128.75,128.75,0,0,1-24.3-17.3l-.3-.3Z"/></clipPath><linearGradient id="linear-gradient-55" x1="11.19" y1="-251.12" x2="12.19" y2="-251.12" gradientTransform="matrix(-40.18, -40.18, -40.18, 40.18, -9342.14, 10884.73)" xlink:href="#linear-gradient"/><clipPath id="clip-path-56" transform="translate(-344.2 -377.5)"><path class="cls-1" d="M583.2,714.9a126.77,126.77,0,0,0-29.1-5c1.5-2.4,12.9-13.1,26.7-14.7,13.5-1.6,25.7,4.8,28,6.1-1.6,2.3-10.4,14.2-21.4,14.2a15.23,15.23,0,0,1-4.2-.6m-2.6-20.6c-12.8,1.5-23.8,10.6-26.8,14.5-.7.9-.8,1.3-.7,1.5l.1.4h.4c.1,0,12.6.2,29.5,5a16.11,16.11,0,0,0,4.4.6c4.8,0,9.7-2.1,14.6-6.2a56.1,56.1,0,0,0,7.8-8.7l.2-.4-.4-.2c-.1-.1-11.2-6.7-24.5-6.7a23.29,23.29,0,0,0-4.6.2"/></clipPath><linearGradient id="linear-gradient-56" x1="13.15" y1="-252.85" x2="14.15" y2="-252.85" gradientTransform="matrix(-24.85, -24.85, -24.85, 24.85, -5706.98, 6951.04)" xlink:href="#linear-gradient"/><clipPath id="clip-path-57" transform="translate(-344.2 -377.5)"><path class="cls-1" d="M561.7,684.2a31.76,31.76,0,0,1-9.2-9.9c-5.2-9-3.7-20.4-2.8-22.7a92.28,92.28,0,0,0,16.2,15.2c7.5,5.6,4.3,17.5,3.1,20.9l-.1.3.3.2c.4.2.7.4.9.5-1.5,2.3-10.4,14.8-21,11.6a103.21,103.21,0,0,0-24.1-4.4c1.3-2.2,10.6-11.1,22-12.5a35.89,35.89,0,0,1,14.3,1.5l2.4.7Zm-12.2-33.7c-.2.1-.4.3-.7,1.3-1.1,3.9-1.8,14.5,3,22.9a30.16,30.16,0,0,0,7.7,8.8,36.62,36.62,0,0,0-12.6-1c-10.5,1.2-19.5,8.8-22.2,12.3-.7.9-.8,1.2-.7,1.5v.4h.4a100.37,100.37,0,0,1,24.5,4.4,12.42,12.42,0,0,0,3.7.6c10.5,0,18.4-12.7,18.5-12.9l.2-.4-.4-.2s-.3-.2-1-.6c1.3-4,4.2-15.8-3.5-21.6A93.85,93.85,0,0,1,550,650.5l-.2-.3Z"/></clipPath><linearGradient id="linear-gradient-57" x1="12.19" y1="-252.06" x2="13.19" y2="-252.06" gradientTransform="matrix(-30.55, -30.55, -30.55, 30.55, -7105.17, 8389.34)" xlink:href="#linear-gradient"/><clipPath id="clip-path-58" transform="translate(-344.2 -377.5)"><path class="cls-1" d="M532.9,669.3a33.34,33.34,0,0,1-6.3-13.2c-2.2-10.3,2.9-21.1,4.5-23.1a93.31,93.31,0,0,0,11.1,20c4.7,6.6.6,15.1-2.3,19.6l-.2.4.4.2a.31.31,0,0,0,.2.1c-1.5,2.2-9.8,13.7-19.6,10.8a97.74,97.74,0,0,0-22.5-4.1c1.3-2.1,10-10.4,20.5-11.6a32,32,0,0,1,13.8,1.6l1.3.4Zm-1.7-37.5c-.2,0-.5.2-1.1,1.1-2.3,3.4-6.4,13.6-4.3,23.3a32.69,32.69,0,0,0,5.7,12.5,32.66,32.66,0,0,0-13-1.2c-9.8,1.1-18.2,8.2-20.7,11.5-.7.8-.7,1.2-.7,1.4v.4h.4a95,95,0,0,1,22.9,4.1,11,11,0,0,0,3.5.5c9.8,0,17.2-11.9,17.3-12l.2-.4-.4-.2a1.24,1.24,0,0,0-.3-.2c3-4.7,6.9-13.3,2.1-20.2A98.34,98.34,0,0,1,531.6,632l-.1-.3Z"/></clipPath><linearGradient id="linear-gradient-58" x1="12.85" y1="-252.64" x2="13.85" y2="-252.64" gradientTransform="matrix(-26.39, -26.39, -26.39, 26.39, -6132.61, 7304.78)" xlink:href="#linear-gradient"/><clipPath id="clip-path-59" transform="translate(-344.2 -377.5)"><path class="cls-1" d="M515.1,657a29.54,29.54,0,0,1-4.7-13.8c-.5-8.7,5-17,6.7-18.6a88.85,88.85,0,0,0,6.6,18.1c3.3,6.7-2.5,14-5.1,16.8l-.3.4.4.3c.1.1.2.2.3.2-1.6,1.8-9.5,10.6-17.4,7.2a83.41,83.41,0,0,0-18.5-5.5c1.4-1.7,9.4-7.7,18.2-7.8h.2a30.55,30.55,0,0,1,13.1,3.4l1.4.7Zm2.3-33.6c-.2,0-.5.1-1.1.8-2.4,2.6-7.1,10.6-6.7,19a29.34,29.34,0,0,0,4.1,13,29.81,29.81,0,0,0-12.4-2.9c-8.4.1-16.1,5.3-18.6,7.8-.6.7-.7,1-.7,1.2v.4h.4a77.37,77.37,0,0,1,18.9,5.5,10.3,10.3,0,0,0,4.1.8c7.7,0,14.2-8.3,14.5-8.7l.3-.3-.3-.3a1.24,1.24,0,0,0-.3-.2c2.9-3.2,8.4-10.4,5-17.4a81.56,81.56,0,0,1-6.7-18.5l-.1-.4Z"/></clipPath><linearGradient id="linear-gradient-59" x1="14.38" y1="-254" x2="15.38" y2="-254" gradientTransform="matrix(-20.07, -20.07, -20.07, 20.07, -4633.23, 5669.1)" xlink:href="#linear-gradient"/><clipPath id="clip-path-60" transform="translate(-344.2 -377.5)"><path class="cls-1" d="M498.7,641.2a24,24,0,0,1-2.2-10.1c.2-7.3,5.1-13.8,6.7-15.2a72.77,72.77,0,0,0,4.5,15.6c2.2,5.4-2.2,10.7-5,13.4l-.3.3.3.3c-1.7,1.4-9.4,7.3-15.4,3.5a73.11,73.11,0,0,0-14.6-7.3c1.6-1.2,8.9-5,16.2-3.8a23.42,23.42,0,0,1,9.2,3.8l1.2.8Zm3.8-25.9a25,25,0,0,0-6.9,15.7,21.86,21.86,0,0,0,1.8,9.2A22.37,22.37,0,0,0,489,637c-7-1.2-14.3,2.1-16.7,3.8-.6.5-.8.7-.8.9l-.1.4.3.1a65.82,65.82,0,0,1,14.9,7.4,9.26,9.26,0,0,0,5,1.4c5.9,0,11.5-5,11.8-5.3l.3-.3-.3-.3h0c3-2.9,7.2-8.3,4.9-14a67.89,67.89,0,0,1-4.5-16v-.4h-.4a3.36,3.36,0,0,0-.9.6"/></clipPath><linearGradient id="linear-gradient-60" x1="15.06" y1="-254.57" x2="16.06" y2="-254.57" gradientTransform="matrix(-18.12, -18.12, -18.12, 18.12, -4181.41, 5154.99)" xlink:href="#linear-gradient"/><clipPath id="clip-path-61" transform="translate(-344.2 -377.5)"><path class="cls-1" d="M488.2,625.5a18.92,18.92,0,0,1-1.5-9.7c.8-5.9,5.4-10.4,6.9-11.5a53.84,53.84,0,0,0,2.5,12.9c1.5,4.9-3.5,9-5.8,10.5l-.4.3.2.2c-1.4,1.3-7.9,6.7-12.9,3.4a60.39,60.39,0,0,0-12.3-6.2c1.4-1.1,7.6-4.5,13.6-3.6a20.72,20.72,0,0,1,9.2,4.2l1.3,1Zm4.6-21.7c-1.7,1.3-6.3,5.9-7,12a20.3,20.3,0,0,0,1.1,8.8,19.58,19.58,0,0,0-8.4-3.5c-6.3-.9-12.2,2.3-14,3.7-.7.5-.8.8-.8,1v.4l.3.1a51.79,51.79,0,0,1,12.7,6.3,7,7,0,0,0,4.1,1.2c5.1,0,9.9-4.7,10.2-5l.3-.3-.1-.1c2.5-1.8,7.3-6.1,5.7-11.2a51.91,51.91,0,0,1-2.5-13.3v-.4l-.4-.1h-.1c-.2-.2-.5-.1-1.1.4"/></clipPath><linearGradient id="linear-gradient-61" x1="16.35" y1="-255.74" x2="17.35" y2="-255.74" gradientTransform="matrix(-15.33, -15.33, -15.33, 15.33, -3523.66, 4422.93)" xlink:href="#linear-gradient"/><clipPath id="clip-path-62" transform="translate(-344.2 -377.5)"><path class="cls-1" d="M479.5,611.4a148.18,148.18,0,0,0,7.1,13.7,140.34,140.34,0,0,0,29.8,35.4c4,3.3,8.1,6.4,12.4,9.3l3.3,2.1a163.32,163.32,0,0,0,15.3,8.4l1.8.8c7,3.3,14.2,6.2,21.4,8.9,9.6,3.6,19.3,7,28.9,10.5,2.4.9,4.8,1.7,7.2,2.6l3.6,1.3,3.5,1.4c4.7,1.8,9.4,3.7,14,5.7s9.2,4.2,13.7,6.5,8.8,4.9,13,7.6l3.1,2.1c7,5.1,12.6,11.6,18.4,18,.3.3,1.8-.3,2-.7a83.4,83.4,0,0,0-17.9-20.4l-3-2.5a128.31,128.31,0,0,0-12.9-8.9c-4.4-2.7-9.1-5.1-13.7-7.4a194.24,194.24,0,0,0-25.2-10c-1.2-.4-2.4-.8-3.7-1.2-9.8-3.1-19.6-6-29.2-9.3-14.3-4.9-28.7-10.7-41.5-18.6-4.3-2.7-8.4-5.6-12.4-8.7a128,128,0,0,1-21.6-21.3c-3.2-4-6.2-8-9-12.3a134.28,134.28,0,0,1-7.6-13.3Z"/></clipPath><linearGradient id="linear-gradient-62" x1="8.04" y1="-249.25" x2="9.04" y2="-249.25" gradientTransform="matrix(-198.49, 0, 0, 198.49, 1929.7, 49773.48)" xlink:href="#linear-gradient"/><clipPath id="clip-path-63" transform="translate(-344.2 -377.5)"><path class="cls-1" d="M674.7,743.7c-5.1-5.7-10.5-11.6-16.8-16.3l-3.1-2.1a150.72,150.72,0,0,0-13-7.7c-5-2.6-9.3-4.7-13.7-6.5-4.8-2.1-9.8-4.1-14-5.7l-7.7-2.9-6.6-2.4c-4.1-1.5-8.2-3-12.3-4.4-5.5-2-11.1-4-16.6-6-8.2-3-15.2-5.9-21.4-8.9,0,0-1.7-.8-1.8-.8a159.55,159.55,0,0,1-15.3-8.4l-3.3-2.1a133.57,133.57,0,0,1-12.4-9.3A136.83,136.83,0,0,1,487,624.9c-1.7-2.9-3.3-5.9-4.8-8.9,1.6,2.9,3.4,5.8,5.2,8.7a141.63,141.63,0,0,0,9,12.4,129.46,129.46,0,0,0,21.7,21.4,116.59,116.59,0,0,0,12.5,8.7c14.3,8.8,30.6,14.9,41.6,18.7,6.3,2.2,12.8,4.2,19.1,6.2,3.4,1.1,6.8,2.1,10.1,3.2,1.1.3,2.1.7,3.2,1l.5.2a200.3,200.3,0,0,1,25.2,10c5.5,2.7,9.8,5,13.7,7.4a133.49,133.49,0,0,1,12.8,8.8l3,2.5a87.29,87.29,0,0,1,17.7,20,2.84,2.84,0,0,1-1.2.4ZM479,611.2l.2.4a136.49,136.49,0,0,0,7.1,13.7,138.5,138.5,0,0,0,29.9,35.5,122.63,122.63,0,0,0,12.5,9.3l3.3,2.1a149.39,149.39,0,0,0,15.4,8.4h0c.2.1.6.3,1.8.8,6.3,3,13.3,5.9,21.5,8.9,5.5,2.1,11.2,4.1,16.6,6,4.1,1.5,8.2,2.9,12.3,4.4l6.6,2.4,4.1,1.5,3.5,1.4c4.2,1.6,9.2,3.6,14,5.7,4.4,1.8,8.6,3.9,13.6,6.5,4,2.1,8.3,4.6,12.9,7.6l3.1,2.1c6.3,4.6,11.3,10.2,16.7,16.1l1.6,1.8a.85.85,0,0,0,.6.2h.1a3,3,0,0,0,2-1l.2-.2-.1-.2a82.69,82.69,0,0,0-18-20.5l-3-2.5a119.73,119.73,0,0,0-12.9-8.9c-3.9-2.4-8.3-4.7-13.8-7.4a202.25,202.25,0,0,0-25.3-10l-.5-.2c-1.1-.4-2.1-.7-3.2-1-3.4-1.1-6.8-2.1-10.2-3.2-6.3-2-12.8-4-19.1-6.1-11-3.8-27.2-9.8-41.4-18.6a144.72,144.72,0,0,1-12.4-8.6,128.23,128.23,0,0,1-21.6-21.3,140.89,140.89,0,0,1-9-12.3,145.16,145.16,0,0,1-7.6-13.2l-.2-.4Z"/></clipPath><linearGradient id="linear-gradient-63" x1="8.77" y1="-248.73" x2="9.77" y2="-248.73" gradientTransform="matrix(-166.76, -166.76, -166.76, 166.76, -39699.31, 43325.45)" xlink:href="#linear-gradient"/><clipPath id="clip-path-64" transform="translate(-344.2 -377.5)"><path class="cls-1" d="M472.1,609.7a28,28,0,0,0,11.5,8.9s-.4-11.6-6.5-15.8c-7.2-5-8.9-7.9-8.9-7.9-.6.3-.5,8.6,3.9,14.8"/></clipPath><linearGradient id="linear-gradient-64" x1="8.51" y1="-263.85" x2="9.51" y2="-263.85" gradientTransform="matrix(-15.64, 0, 0, 15.64, 272.51, 4357.21)" xlink:href="#linear-gradient"/><clipPath id="clip-path-65" transform="translate(-344.2 -377.5)"><path class="cls-1" d="M472.4,609.5a25,25,0,0,1-4.1-13.6,42,42,0,0,0,8.5,7.2c5,3.5,6.1,12.3,6.3,14.8a27.22,27.22,0,0,1-10.7-8.4m-4.5-15c-.2.1-.2.3-.3.6-.3,1.6,0,9,4.2,14.8a28,28,0,0,0,11.6,9l.6.2v-.6c0-.5-.5-11.9-6.7-16.1-7-4.8-8.8-7.7-8.8-7.7l-.2-.4Z"/></clipPath><linearGradient id="linear-gradient-65" x1="14.27" y1="-253.9" x2="15.27" y2="-253.9" gradientTransform="matrix(-20.4, -20.4, -20.4, 20.4, -4746.6, 5710.51)" xlink:href="#linear-gradient"/></defs><title>RE LOGO - SVG</title><g id="reignever"><g class="cls-2"><polygon class="cls-3" points="0 462.6 2 389.9 69.5 391.7 67.5 464.4 0 462.6"/></g><g class="cls-4"><polygon class="cls-5" points="139.8 462.6 141.8 390.9 169.8 391.7 167.9 463.3 139.8 462.6"/></g><g class="cls-6"><polygon class="cls-7" points="73.6 462.6 75.5 390.1 135.7 391.7 133.8 464.2 73.6 462.6"/></g><g class="cls-8"><polygon class="cls-9" points="175.8 463.6 177.8 388.8 248.9 390.7 246.8 465.5 175.8 463.6"/></g><g class="cls-10"><polygon class="cls-11" points="254.1 462.6 256.1 389.9 321.8 391.7 319.9 464.3 254.1 462.6"/></g><g class="cls-12"><polygon class="cls-13" points="329.2 462.6 331.1 390.1 391.3 391.7 389.4 464.2 329.2 462.6"/></g><g class="cls-14"><polygon class="cls-15" points="392.8 462.6 394.7 389.7 467.2 391.7 465.2 464.5 392.8 462.6"/></g><g class="cls-16"><polygon class="cls-17" points="470.5 462.6 472.4 390.1 532.6 391.7 530.7 464.2 470.5 462.6"/></g><g class="cls-18"><polygon class="cls-19" points="538.1 462.6 540.1 389.9 607.6 391.7 605.6 464.4 538.1 462.6"/></g></g><g id="entertainment"><g class="cls-20"><polygon class="cls-21" points="71 525.9 72.1 486.6 100.5 487.4 99.5 526.7 71 525.9"/></g><g class="cls-22"><polygon class="cls-23" points="105.3 525.9 106.4 486.5 137.8 487.4 136.7 526.8 105.3 525.9"/></g><g class="cls-24"><polygon class="cls-25" points="141.3 525.9 142.4 486.5 174.2 487.4 173.1 526.8 141.3 525.9"/></g><g class="cls-26"><polygon class="cls-27" points="177.7 525.9 178.8 486.6 207.2 487.4 206.1 526.7 177.7 525.9"/></g><g class="cls-28"><polygon class="cls-29" points="212 525.9 213.1 486.5 244.9 487.4 243.9 526.8 212 525.9"/></g><g class="cls-30"><polygon class="cls-31" points="245.7 525.9 246.7 486.5 278.6 487.4 277.5 526.8 245.7 525.9"/></g><g class="cls-32"><polygon class="cls-33" points="274.5 525.9 275.6 486.4 313.2 487.4 312.1 526.9 274.5 525.9"/></g><g class="cls-34"><polygon class="cls-35" points="316.3 525.9 317.3 487.1 326.2 487.4 325.1 526.2 316.3 525.9"/></g><g class="cls-36"><polygon class="cls-37" points="332.8 525.9 333.8 486.5 365.2 487.4 364.2 526.8 332.8 525.9"/></g><g class="cls-38"><polygon class="cls-39" points="371.8 525.9 372.8 486.4 410 487.4 408.9 526.9 371.8 525.9"/></g><g class="cls-40"><polygon class="cls-41" points="416.5 525.9 417.5 486.6 446 487.4 444.9 526.7 416.5 525.9"/></g><g class="cls-42"><polygon class="cls-43" points="450.8 525.9 451.9 486.5 483.3 487.4 482.2 526.8 450.8 525.9"/></g><g class="cls-44"><polygon class="cls-45" points="486.8 525.9 487.8 486.5 519.7 487.4 518.6 526.8 486.8 525.9"/></g><g class="cls-46"><polygon class="cls-47" points="520.7 526.5 521.7 486 554.2 486.8 553.1 527.4 520.7 526.5"/></g></g><g id="logo_r"><g class="cls-48"><polygon class="cls-49" points="162.6 294.2 161.7 0.5 307.3 0 308.3 293.7 162.6 294.2"/></g></g><g id="logo_e"><g class="cls-50"><polygon class="cls-51" points="315.6 293.6 314.7 1.3 456.9 0.8 457.8 293.2 315.6 293.6"/></g></g><g id="leaf_right"><g class="cls-52"><rect class="cls-53" x="354.8" y="281.4" width="41.3" height="41.7"/></g><g class="cls-54"><polygon class="cls-55" points="333.1 302.2 375.1 260.2 417.1 302.2 375.1 344.2 333.1 302.2"/></g><g class="cls-56"><rect class="cls-57" x="315.7" y="295.5" width="62.1" height="62.2"/></g><g class="cls-58"><rect class="cls-59" x="357.8" y="318" width="56" height="25"/></g><g class="cls-60"><rect class="cls-61" x="393.1" y="274.4" width="49.7" height="53.5"/></g><g class="cls-62"><rect class="cls-63" x="419.7" y="255.8" width="50" height="55.6"/></g><g class="cls-64"><rect class="cls-65" x="439.6" y="247.4" width="45.1" height="47.9"/></g><g class="cls-66"><rect class="cls-67" x="456.7" y="238.7" width="38.4" height="38.7"/></g><g class="cls-68"><rect class="cls-69" x="469.1" y="227.2" width="34" height="32.3"/></g><g class="cls-70"><polygon class="cls-71" points="284.2 326 346.7 263.5 409.2 326 346.7 388.5 284.2 326"/></g><g class="cls-72"><polygon class="cls-73" points="345.9 328.5 385.7 288.7 425.5 328.5 385.7 368.3 345.9 328.5"/></g><g class="cls-74"><polygon class="cls-75" points="367.2 299.6 418 248.8 468.9 299.6 418 350.4 367.2 299.6"/></g><g class="cls-76"><polygon class="cls-77" points="392.6 282.1 444.7 230 496.8 282.1 444.7 334.3 392.6 282.1"/></g><g class="cls-78"><polygon class="cls-79" points="416.4 269.8 462.2 224 508 269.8 462.2 315.6 416.4 269.8"/></g><g class="cls-80"><polygon class="cls-81" points="438.2 256.4 476 218.6 513.8 256.4 476 294.2 438.2 256.4"/></g><g class="cls-82"><polygon class="cls-83" points="453.6 241.9 486.1 209.4 518.7 241.9 486.1 274.5 453.6 241.9"/></g><g class="cls-84"><rect class="cls-85" x="289.1" y="234.7" width="198.5" height="134.9"/></g><g class="cls-86"><polygon class="cls-87" points="220.7 301.9 388.4 134.3 556 301.9 388.4 469.6 220.7 301.9"/></g><g class="cls-88"><rect class="cls-89" x="483.6" y="218.4" width="15.9" height="23.7"/></g><g class="cls-90"><polygon class="cls-91" points="470.7 230.3 491.5 209.5 512.3 230.3 491.5 251.1 470.7 230.3"/></g></g><g id="leaf_left"><g class="cls-92"><rect class="cls-93" x="226.8" y="280.3" width="41.3" height="41.7"/></g><g class="cls-94"><polygon class="cls-95" points="289.8 301.1 247.8 259.1 205.8 301.1 247.8 343.1 289.8 301.1"/></g><g class="cls-96"><rect class="cls-97" x="245.1" y="294.4" width="62.1" height="62.2"/></g><g class="cls-98"><rect class="cls-99" x="209.1" y="317" width="56" height="25"/></g><g class="cls-100"><rect class="cls-101" x="180" y="273.4" width="49.7" height="53.5"/></g><g class="cls-102"><rect class="cls-103" x="153.2" y="254.7" width="50" height="55.6"/></g><g class="cls-104"><rect class="cls-105" x="138.2" y="246.3" width="45.1" height="47.9"/></g><g class="cls-106"><rect class="cls-107" x="127.8" y="237.6" width="38.4" height="38.7"/></g><g class="cls-108"><rect class="cls-109" x="119.8" y="226.2" width="34" height="32.3"/></g><g class="cls-110"><polygon class="cls-111" points="338.7 325 276.2 262.5 213.8 325 276.2 387.4 338.7 325"/></g><g class="cls-112"><polygon class="cls-113" points="277.1 327.4 237.3 287.6 197.5 327.4 237.3 367.2 277.1 327.4"/></g><g class="cls-114"><polygon class="cls-115" points="256.6 299.4 204.9 247.7 153.2 299.4 204.9 351.2 256.6 299.4"/></g><g class="cls-116"><polygon class="cls-117" points="231.1 281.9 178.2 229 125.3 281.9 178.2 334.8 231.1 281.9"/></g><g class="cls-118"><polygon class="cls-119" points="207.4 269.6 160.7 222.9 114.1 269.6 160.7 316.2 207.4 269.6"/></g><g class="cls-120"><polygon class="cls-121" points="185.6 256.2 146.9 217.5 108.3 256.2 146.9 294.9 185.6 256.2"/></g><g class="cls-122"><polygon class="cls-123" points="170 241.6 136.8 208.3 103.5 241.6 136.8 274.8 170 241.6"/></g><g class="cls-124"><rect class="cls-125" x="135.3" y="233.6" width="198.5" height="134.9"/></g><g class="cls-126"><polygon class="cls-127" points="402.2 300.9 234.5 133.3 66.9 300.9 234.5 468.5 402.2 300.9"/></g><g class="cls-128"><rect class="cls-129" x="123.4" y="217.4" width="15.9" height="23.7"/></g><g class="cls-130"><polygon class="cls-131" points="152.3 229.2 131.4 208.4 110.6 229.2 131.4 250.1 152.3 229.2"/></g></g></svg>